<svg xmlns="http://www.w3.org/2000/svg" viewBox="0 0 18 22"><defs><style>.cls-1{fill:#70778b;}</style></defs><title>Ресурс 1</title><g id="Слой_2" data-name="Слой 2"><g id="Слой_1-2" data-name="Слой 1"><path class="cls-1" d="M2.34,22a2.44,2.44,0,0,1-.94-.2A2.32,2.32,0,0,1,0,19.66v-16A3.68,3.68,0,0,1,3.67,0H14.33A3.67,3.67,0,0,1,18,3.67v16a2.34,2.34,0,0,1-3.93,1.71L9.23,16.84a.34.34,0,0,0-.46,0L3.93,21.36A2.32,2.32,0,0,1,2.34,22ZM9,14.75a2.31,2.31,0,0,1,1.59.63l4.85,4.52a.33.33,0,0,0,.36.07.34.34,0,0,0,.2-.31v-16A1.67,1.67,0,0,0,14.33,2H3.67A1.67,1.67,0,0,0,2,3.67v16a.34.34,0,0,0,.2.31.33.33,0,0,0,.36-.07l4.85-4.52A2.31,2.31,0,0,1,9,14.75Z"/></g></g></svg>