<svg xmlns="http://www.w3.org/2000/svg" viewBox="0 0 461.67 433.48"><defs><style>.cls-3{fill:#350606;}</style></defs><title>Ресурс 1</title><g id="Слой_2" data-name="Слой 2"><g id="Слой_1-2" data-name="Слой 1"><g id="Слой_1-2-2" data-name="Слой 1-2"><path class="cls-3" d="M377.93,401.94s6.26,30.76-7.41,31.33S358,434.41,325,419c-30.39-14.15-84.61-41.39-93.11-45.67l-1.13-.57-1.13.57c-8.46,4.26-62.47,31.42-92.86,45.57-33,15.38-31.91,14.81-45.58,14.24s-7.4-31.33-7.4-31.33,12.53-112.23,9.68-121.91S0,185.93,0,166.57,149.82,137,149.82,137,203.37,7.08,230.71.24,308.18,137,308.18,137s153.49,10.28,153.49,29.64S371.09,270.31,368.24,280,377.93,401.94,377.93,401.94Z"/></g></g></g></svg>