<svg xmlns="http://www.w3.org/2000/svg" viewBox="0 0 461.67 433.49"><defs><style></style></defs><title>Ресурс 1</title><g id="Слой_2" data-name="Слой 2"><g id="Слой_1-2" data-name="Слой 1"><path class="cls-1" d="M368.24,280c2.85-9.69,93.43-94,93.43-113.36S308.18,137,308.18,137,258.05-6.6,230.71.24,149.82,137,149.82,137,0,147.21,0,166.57,90.57,270.25,93.42,279.93s-9.68,121.91-9.68,121.91-6.27,30.76,7.4,31.33,12.54,1.14,45.58-14.24c30.39-14.15,84.4-41.31,92.86-45.57l1.13-.57,1.13.57c8.5,4.28,62.72,31.52,93.11,45.67,33,15.38,31.9,14.81,45.57,14.24s7.41-31.33,7.41-31.33S365.4,289.72,368.24,280ZM332.6,368s-68.36-29.06-100.83-47.86C199.3,338.93,130.38,368,130.38,368s10.25-102.54,9.68-106.53S72.84,185.7,72.84,185.7c5.7-2.85,108.8-10.83,108.8-10.83,9.86-34.51,46.23-104.2,49-109.37,0,0,40.11,74.37,50,108.87,0,0,102.53,8,108.23,10.83,0,0-66.08,71.2-66.65,75.19S332.6,368,332.6,368Z"/></g></g></svg> 