<svg xmlns="http://www.w3.org/2000/svg" viewBox="0 0 13 18.19"><defs><style>.cls-6{}</style></defs><title>Ресурс 1</title><g id="Слой_2" data-name="Слой 2"><g id="Слой_1-2" data-name="Слой 1"><path class="cls-6" d="M4.1.43A6.14,6.14,0,0,0,.6,3.66C-.64,6.39.25,8.6,1.34,10.84A32.94,32.94,0,0,0,3.09,14,23.91,23.91,0,0,0,6.3,18.12a.28.28,0,0,0,.38,0,24,24,0,0,0,3.79-5.07,17.17,17.17,0,0,0,2.45-5.54A6.51,6.51,0,0,0,4.1.43ZM6.49,9.65A3.27,3.27,0,1,1,9.74,6.39,3.26,3.26,0,0,1,6.49,9.65Z"/></g></g></svg>