<svg xmlns="http://www.w3.org/2000/svg" viewBox="0 0 10 10"><defs><style>.cls-1{fill-rule:evenodd;}</style></defs><title>Ресурс 1</title><g id="Слой_2" data-name="Слой 2"><g id="Слой_1-2" data-name="Слой 1"><path class="cls-1" d="M3.53,2.55C3.91,1.63,4.64,0,5,0c.53,0,1.7,3.16,1.7,3.16s1.08.1,2,.2c.46.05,1.29.14,1.34.41a1,1,0,0,1-.18.46C9.31,4.93,8,6.45,8,6.45s.07.72.14,1.51a16.51,16.51,0,0,1,.11,1.73c0,.2-.12.26-.2.29s-.72-.24-1.31-.54L5,8.61s-.59.32-1.29.64-1.51.91-1.83.71,0-1.09,0-2,.14-1.55.14-1.55-.44-.55-1-1.13S-.13,4,0,3.77s.61-.29,1.46-.4,1.8-.2,1.8-.2S3.37,2.91,3.53,2.55Z"/></g></g></svg>